<svg width="32" height="32" viewBox="0 0 32 32" fill="none" xmlns="http://www.w3.org/2000/svg">
<rect width="32" height="32" rx="16" fill="#F6F2FF"/>
<g clip-path="url(#clip0_21239_1800)">
<path d="M14.06 14C14.2168 13.5544 14.5261 13.1787 14.9333 12.9394C15.3405 12.7001 15.8193 12.6126 16.2848 12.6925C16.7503 12.7723 17.1726 13.0143 17.4768 13.3757C17.7809 13.737 17.9474 14.1943 17.9467 14.6667C17.9467 16 15.9467 16.6667 15.9467 16.6667M16 19.3333H16.0067M22.6667 16C22.6667 19.6819 19.6819 22.6667 16 22.6667C12.3181 22.6667 9.33337 19.6819 9.33337 16C9.33337 12.3181 12.3181 9.33333 16 9.33333C19.6819 9.33333 22.6667 12.3181 22.6667 16Z" stroke="#8D67FB" stroke-width="1.5" stroke-linecap="round" stroke-linejoin="round"/>
</g>
<defs>
<clipPath id="clip0_21239_1800">
<rect width="16" height="16" fill="white" transform="translate(8 8)"/>
</clipPath>
</defs>
</svg>
