<svg width="32" height="32" viewBox="0 0 32 32" fill="none" xmlns="http://www.w3.org/2000/svg">
<rect width="32" height="32" rx="16" fill="#F6F2FF"/>
<g clip-path="url(#clip0_21239_1873)">
<path d="M13.643 13.643L11.286 11.286M11.286 20.7141L13.643 18.357M18.3571 18.357L20.7141 20.714M20.7141 11.2859L18.3571 13.643M22.6667 16C22.6667 19.6819 19.6819 22.6667 16 22.6667C12.3181 22.6667 9.33337 19.6819 9.33337 16C9.33337 12.3181 12.3181 9.33334 16 9.33334C19.6819 9.33334 22.6667 12.3181 22.6667 16ZM19.3334 16C19.3334 17.841 17.841 19.3333 16 19.3333C14.1591 19.3333 12.6667 17.841 12.6667 16C12.6667 14.1591 14.1591 12.6667 16 12.6667C17.841 12.6667 19.3334 14.1591 19.3334 16Z" stroke="#8D67FB" stroke-width="1.5" stroke-linecap="round" stroke-linejoin="round"/>
</g>
<defs>
<clipPath id="clip0_21239_1873">
<rect width="16" height="16" fill="white" transform="translate(8 8)"/>
</clipPath>
</defs>
</svg>
