<svg width="32" height="32" viewBox="0 0 32 32" fill="none" xmlns="http://www.w3.org/2000/svg">
<path fill-rule="evenodd" clip-rule="evenodd" d="M11.3333 20C11.3333 20.3667 11.6333 20.6667 12 20.6667H20C20.3667 20.6667 20.6667 20.3667 20.6667 20V16.6667C20.6667 16.3 20.9667 16 21.3333 16C21.7 16 22 16.3 22 16.6667V20.6667C22 21.4 21.4 22 20.6667 22H11.3333C10.6 22 10 21.4 10 20.6667V11.3333C10 10.6 10.5933 10 11.3333 10H15.3333C15.7 10 16 10.3 16 10.6667C16 11.0333 15.7 11.3333 15.3333 11.3333H12C11.6333 11.3333 11.3333 11.6333 11.3333 12V20ZM18 11.3333C17.6333 11.3333 17.3333 11.0333 17.3333 10.6667C17.3333 10.3 17.6333 10 18 10H22V14C22 14.3667 21.7 14.6667 21.3333 14.6667C20.9667 14.6667 20.6667 14.3667 20.6667 14V12.2733L14.58 18.36C14.32 18.62 13.9 18.62 13.64 18.36C13.38 18.1 13.38 17.68 13.64 17.42L19.7267 11.3333H18Z" fill="#8D67FB"/>
</svg>
