<svg class="svg-inline--fa fa-times fa-w-11 fa-inverse" focusable="false" viewBox="0 0 238 238" xmlns="http://www.w3.org/2000/svg">
<path opacity="0.2" d="M118.641 -6.10352e-05C53.1012 -6.10352e-05 0 53.1012 0 118.641C0 184.18 53.1012 237.281 118.641 237.281C184.18 237.281 237.281 184.18 237.281 118.641C237.281 53.1012 184.18 -6.10352e-05 118.641 -6.10352e-05Z" fill="black"/>
<path d="M119.21 184.716C82.4165 184.716 52.565 154.865 52.565 118.071C52.565 81.2772 82.4165 51.4257 119.21 51.4257C156.004 51.4257 185.855 81.2772 185.855 118.071C185.855 154.865 156.004 184.716 119.21 184.716ZM119.21 206.931C168.292 206.931 208.071 167.152 208.071 118.071C208.071 68.9895 168.292 29.2106 119.21 29.2106C70.1288 29.2106 30.3499 68.9895 30.3499 118.071C30.3499 167.152 70.1288 206.931 119.21 206.931ZM99.772 118.071C99.772 110.886 103.694 104.603 109.491 101.236L91.4414 69.9614C74.8495 79.5764 63.6725 97.522 63.6725 118.071H99.772ZM109.491 134.906L91.4414 166.18C99.5985 170.901 109.109 173.609 119.21 173.609C129.311 173.609 138.822 170.901 146.979 166.18L128.929 134.906C126.083 136.572 122.751 137.509 119.21 137.509C115.67 137.509 112.337 136.572 109.491 134.906ZM138.648 118.071H174.748C174.748 97.522 163.571 79.5764 146.979 69.9614L128.929 101.236C134.726 104.603 138.648 110.886 138.648 118.071ZM119.21 129.178C125.354 129.178 130.318 124.215 130.318 118.071C130.318 111.927 125.354 106.963 119.21 106.963C113.066 106.963 108.103 111.927 108.103 118.071C108.103 124.215 113.066 129.178 119.21 129.178Z" fill="white"/>
</svg>
