<svg width="25" height="24" viewBox="0 0 25 24" fill="none" xmlns="http://www.w3.org/2000/svg">
<path d="M4.5 18V17.8C4.5 16.1198 4.5 15.2798 4.82698 14.638C5.1146 14.0735 5.57354 13.6146 6.13803 13.327C6.77976 13 7.61984 13 9.3 13H15.7C17.3802 13 18.2202 13 18.862 13.327C19.4265 13.6146 19.8854 14.0735 20.173 14.638C20.5 15.2798 20.5 16.1198 20.5 17.8V18M4.5 18C3.39543 18 2.5 18.8954 2.5 20C2.5 21.1046 3.39543 22 4.5 22C5.60457 22 6.5 21.1046 6.5 20C6.5 18.8954 5.60457 18 4.5 18ZM20.5 18C19.3954 18 18.5 18.8954 18.5 20C18.5 21.1046 19.3954 22 20.5 22C21.6046 22 22.5 21.1046 22.5 20C22.5 18.8954 21.6046 18 20.5 18ZM12.5 18C11.3954 18 10.5 18.8954 10.5 20C10.5 21.1046 11.3954 22 12.5 22C13.6046 22 14.5 21.1046 14.5 20C14.5 18.8954 13.6046 18 12.5 18ZM12.5 18V8M6.5 8H18.5C19.4319 8 19.8978 8 20.2654 7.84776C20.7554 7.64477 21.1448 7.25542 21.3478 6.76537C21.5 6.39782 21.5 5.93188 21.5 5C21.5 4.06812 21.5 3.60218 21.3478 3.23463C21.1448 2.74458 20.7554 2.35523 20.2654 2.15224C19.8978 2 19.4319 2 18.5 2H6.5C5.56812 2 5.10218 2 4.73463 2.15224C4.24458 2.35523 3.85523 2.74458 3.65224 3.23463C3.5 3.60218 3.5 4.06812 3.5 5C3.5 5.93188 3.5 6.39782 3.65224 6.76537C3.85523 7.25542 4.24458 7.64477 4.73463 7.84776C5.10218 8 5.56812 8 6.5 8Z" stroke="#101828" stroke-width="1.66667" stroke-linecap="round" stroke-linejoin="round"/>
</svg>
