<svg width="548" height="377" viewBox="0 0 548 377" fill="none" xmlns="http://www.w3.org/2000/svg">
<path opacity="0.8" fill-rule="evenodd" clip-rule="evenodd" d="M0 232.979L20.1402 293.5C42.9735 254.67 71.8957 300.5 117.562 300.5C163.229 300.5 180.325 230.606 225.991 300.5C271.658 370.394 377.277 310.639 422.944 326.171C468.61 341.703 502.333 357.235 525.167 341.703L548 326.171V0H525.167C502.333 0 456.667 0 411 0C365.333 0 319.667 0 274 0C228.333 0 182.667 0 137 0C91.3333 0 45.6667 0 22.8333 0H0V232.979Z" fill="#7652DC"/>
<path opacity="0.8" fill-rule="evenodd" clip-rule="evenodd" d="M0 333.026L22.8333 340.955C45.6667 348.884 91.3333 364.743 137 333.026C182.667 301.309 228.333 301.429 274 293.5C319.667 285.571 365.333 269.592 411 245.805C456.667 222.017 502.333 111.009 525.167 55.5043L548 0H525.167C502.333 0 456.667 0 411 0C365.333 0 319.667 0 274 0C228.333 0 182.667 0 137 0C91.3333 0 45.6667 0 22.8333 0H0V333.026Z" fill="#AD97EA"/>
<path opacity="0.8" fill-rule="evenodd" clip-rule="evenodd" d="M0 213.251L30.5967 231.022C60.7367 248.792 121.93 284.334 182.667 248.792C243.403 213.251 304.597 183.271 365.333 165.5C426.07 147.729 467.744 162.958 497.884 198.5L548 248.792V0H517.403C487.263 0 426.07 0 365.333 0C304.597 0 243.403 0 182.667 0C121.93 0 60.7367 0 30.5967 0H0V213.251Z" fill="#9175E3"/>
</svg>
