<svg width="853" height="377" viewBox="0 0 853 377" fill="none" xmlns="http://www.w3.org/2000/svg">
<path opacity="0.8" fill-rule="evenodd" clip-rule="evenodd" d="M0 232.979L31.3496 293.5C66.8912 254.67 111.911 300.5 182.994 300.5C254.077 300.5 280.688 230.606 351.771 300.5C422.855 370.394 587.258 310.639 658.341 326.171C729.424 341.703 781.917 357.235 817.458 341.703L853 326.171V0H817.458C781.917 0 710.833 0 639.75 0C568.667 0 497.583 0 426.5 0C355.417 0 284.333 0 213.25 0C142.167 0 71.0833 0 35.5417 0H0V232.979Z" fill="#7652DC"/>
<path opacity="0.8" fill-rule="evenodd" clip-rule="evenodd" d="M0 333.026L35.5417 340.955C71.0833 348.884 142.167 364.743 213.25 333.026C284.333 301.309 355.417 301.429 426.5 293.5C497.583 285.571 568.667 269.592 639.75 245.805C710.833 222.017 781.917 111.009 817.458 55.5043L853 0H817.458C781.917 0 710.833 0 639.75 0C568.667 0 497.583 0 426.5 0C355.417 0 284.333 0 213.25 0C142.167 0 71.0833 0 35.5417 0H0V333.026Z" fill="#AD97EA"/>
<path opacity="0.8" fill-rule="evenodd" clip-rule="evenodd" d="M0 213.251L47.6258 231.022C94.5408 248.792 189.792 284.334 284.333 248.792C378.874 213.251 474.126 183.271 568.667 165.5C663.208 147.729 728.076 162.958 774.991 198.5L853 248.792V0H805.374C758.459 0 663.208 0 568.667 0C474.126 0 378.874 0 284.333 0C189.792 0 94.5408 0 47.6258 0H0V213.251Z" fill="#9175E3"/>
</svg>
