<svg width="2479" height="377" viewBox="0 0 2479 377" fill="none" xmlns="http://www.w3.org/2000/svg">
<path opacity="0.8" fill-rule="evenodd" clip-rule="evenodd" d="M0 232.979L91.1086 293.5C194.4 254.67 325.236 300.5 531.82 300.5C738.403 300.5 815.739 230.606 1022.32 300.5C1228.91 370.394 1706.7 310.639 1913.28 326.171C2119.86 341.703 2272.42 357.235 2375.71 341.703L2479 326.171V0H2375.71C2272.42 0 2065.83 0 1859.25 0C1652.67 0 1446.08 0 1239.5 0C1032.92 0 826.333 0 619.75 0C413.167 0 206.583 0 103.292 0H0V232.979Z" fill="#7652DC"/>
<path opacity="0.8" fill-rule="evenodd" clip-rule="evenodd" d="M0 333.026L103.292 340.955C206.583 348.884 413.167 364.743 619.75 333.026C826.333 301.309 1032.92 301.429 1239.5 293.5C1446.08 285.571 1652.67 269.592 1859.25 245.805C2065.83 222.017 2272.42 111.009 2375.71 55.5043L2479 0H2375.71C2272.42 0 2065.83 0 1859.25 0C1652.67 0 1446.08 0 1239.5 0C1032.92 0 826.333 0 619.75 0C413.167 0 206.583 0 103.292 0H0V333.026Z" fill="#AD97EA"/>
<path opacity="0.8" fill-rule="evenodd" clip-rule="evenodd" d="M0 213.251L138.411 231.022C274.756 248.792 551.578 284.334 826.333 248.792C1101.09 213.251 1377.91 183.271 1652.67 165.5C1927.42 147.729 2115.94 162.958 2252.29 198.5L2479 248.792V0H2340.59C2204.24 0 1927.42 0 1652.67 0C1377.91 0 1101.09 0 826.333 0C551.578 0 274.756 0 138.411 0H0V213.251Z" fill="#9175E3"/>
</svg>
