<svg width="868" height="377" viewBox="0 0 868 377" fill="none" xmlns="http://www.w3.org/2000/svg">
<path opacity="0.8" fill-rule="evenodd" clip-rule="evenodd" d="M0 232.979L31.9009 293.5C68.0675 254.67 113.879 300.5 186.212 300.5C258.545 300.5 285.624 230.606 357.957 300.5C430.291 370.394 597.585 310.639 669.918 326.171C742.251 341.703 795.667 357.235 831.833 341.703L868 326.171V0H831.833C795.667 0 723.333 0 651 0C578.667 0 506.333 0 434 0C361.667 0 289.333 0 217 0C144.667 0 72.3333 0 36.1667 0H0V232.979Z" fill="#7652DC"/>
<path opacity="0.8" fill-rule="evenodd" clip-rule="evenodd" d="M0 333.026L36.1667 340.955C72.3333 348.884 144.667 364.743 217 333.026C289.333 301.309 361.667 301.429 434 293.5C506.333 285.571 578.667 269.592 651 245.805C723.333 222.017 795.667 111.009 831.833 55.5043L868 0H831.833C795.667 0 723.333 0 651 0C578.667 0 506.333 0 434 0C361.667 0 289.333 0 217 0C144.667 0 72.3333 0 36.1667 0H0V333.026Z" fill="#AD97EA"/>
<path opacity="0.8" fill-rule="evenodd" clip-rule="evenodd" d="M0 213.251L48.4633 231.022C96.2033 248.792 193.13 284.334 289.333 248.792C385.537 213.251 482.463 183.271 578.667 165.5C674.87 147.729 740.879 162.958 788.619 198.5L868 248.792V0H819.537C771.797 0 674.87 0 578.667 0C482.463 0 385.537 0 289.333 0C193.13 0 96.2033 0 48.4633 0H0V213.251Z" fill="#9175E3"/>
</svg>
