<svg width="1504" height="377" viewBox="0 0 1504 377" fill="none" xmlns="http://www.w3.org/2000/svg">
<path opacity="0.8" fill-rule="evenodd" clip-rule="evenodd" d="M0 232.979L55.2752 293.5C117.942 254.67 197.32 300.5 322.653 300.5C447.986 300.5 494.906 230.606 620.239 300.5C745.573 370.394 1035.45 310.639 1160.78 326.171C1286.11 341.703 1378.67 357.235 1441.33 341.703L1504 326.171V0H1441.33C1378.67 0 1253.33 0 1128 0C1002.67 0 877.333 0 752 0C626.667 0 501.333 0 376 0C250.667 0 125.333 0 62.6667 0H0V232.979Z" fill="#7652DC"/>
<path opacity="0.8" fill-rule="evenodd" clip-rule="evenodd" d="M0 333.026L62.6667 340.955C125.333 348.884 250.667 364.743 376 333.026C501.333 301.309 626.667 301.429 752 293.5C877.333 285.571 1002.67 269.592 1128 245.805C1253.33 222.017 1378.67 111.009 1441.33 55.5043L1504 0H1441.33C1378.67 0 1253.33 0 1128 0C1002.67 0 877.333 0 752 0C626.667 0 501.333 0 376 0C250.667 0 125.333 0 62.6667 0H0V333.026Z" fill="#AD97EA"/>
<path opacity="0.8" fill-rule="evenodd" clip-rule="evenodd" d="M0 213.251L83.9733 231.022C166.693 248.792 334.64 284.334 501.333 248.792C668.027 213.251 835.973 183.271 1002.67 165.5C1169.36 147.729 1283.73 162.958 1366.45 198.5L1504 248.792V0H1420.03C1337.31 0 1169.36 0 1002.67 0C835.973 0 668.027 0 501.333 0C334.64 0 166.693 0 83.9733 0H0V213.251Z" fill="#9175E3"/>
</svg>
