<svg width="24" height="24" viewBox="0 0 24 24" fill="none" xmlns="http://www.w3.org/2000/svg">
<path d="M11.5 9.20833V16.5417" stroke="#212121" stroke-width="1.2" stroke-linecap="round" stroke-linejoin="round"/>
<path d="M6.45834 11.9583H7.83334" stroke="#212121" stroke-width="1.2" stroke-linecap="round" stroke-linejoin="round"/>
<path d="M7.83334 8.29166L8.79584 9.25416" stroke="#212121" stroke-width="1.2" stroke-linecap="round" stroke-linejoin="round"/>
<path d="M15.1667 8.29166L14.2042 9.25416" stroke="#212121" stroke-width="1.2" stroke-linecap="round" stroke-linejoin="round"/>
<path d="M7.83334 16.0833L8.79584 15.1208" stroke="#212121" stroke-width="1.2" stroke-linecap="round" stroke-linejoin="round"/>
<path d="M15.1667 16.0833L14.2042 15.1208" stroke="#212121" stroke-width="1.2" stroke-linecap="round" stroke-linejoin="round"/>
<path d="M15.1667 11.9583H16.5417" stroke="#212121" stroke-width="1.2" stroke-linecap="round" stroke-linejoin="round"/>
<path d="M10.125 7.37499L9.20834 6.45833" stroke="#212121" stroke-width="1.2" stroke-linecap="round" stroke-linejoin="round"/>
<path d="M12.875 7.37499L13.7917 6.45833" stroke="#212121" stroke-width="1.2" stroke-linecap="round" stroke-linejoin="round"/>
<path d="M13.2875 8.38333C14.4333 9.11666 15.1667 10.5375 15.1667 12.1875C15.1667 14.5708 13.5167 16.5417 11.5 16.5417C9.48334 16.5417 7.83334 14.5708 7.83334 12.1875C7.83334 10.5375 8.61251 9.11666 9.71251 8.38333" stroke="#212121" stroke-width="1.2" stroke-linecap="round" stroke-linejoin="round"/>
<path d="M11.5 6.91666C10.5834 6.91666 9.80419 7.60416 9.66669 8.52082C9.66669 8.52082 10.5834 9.20832 11.5 9.20832C12.4167 9.20832 13.3334 8.52082 13.3334 8.52082C13.1959 7.60416 12.4167 6.91666 11.5 6.91666Z" stroke="#212121" stroke-width="1.2" stroke-linecap="round" stroke-linejoin="round"/>
<path d="M21 21L17.5001 17.5M20 11.5C20 16.1944 16.1944 20 11.5 20C6.80558 20 3 16.1944 3 11.5C3 6.80558 6.80558 3 11.5 3C16.1944 3 20 6.80558 20 11.5Z" stroke="#101828" stroke-width="1.66667" stroke-linecap="round" stroke-linejoin="round"/>
</svg>
