<svg width="32" height="32" viewBox="0 0 32 32" fill="none" xmlns="http://www.w3.org/2000/svg">
<path d="M25.3376 31.9984C25.0445 31.9333 24.7821 31.815 24.5854 31.5761C24.3545 31.2953 24.2718 30.9731 24.3176 30.6172C24.4599 29.516 24.6059 28.4154 24.7488 27.3145C24.7764 27.1029 24.7901 26.8894 24.8193 26.6781C24.8353 26.5627 24.7709 26.506 24.6963 26.439C24.0684 25.876 23.4229 25.331 22.8223 24.7401C21.77 23.7049 20.8301 22.5691 19.9543 21.381C19.8543 21.2453 19.7582 21.1934 19.583 21.2114C19.2546 21.2457 18.9225 21.2508 18.5919 21.2534C16.9905 21.2665 15.3891 21.2816 13.7877 21.2819C13.1531 21.2819 12.5182 21.2508 11.8836 21.2251C11.2368 21.1989 10.7454 20.7003 10.7361 20.0162C10.7051 17.7304 10.6881 15.4439 10.6737 13.1577C10.6711 12.7471 10.7051 12.3361 10.7249 11.9257C10.7518 11.3675 11.2038 10.886 11.7603 10.8382C12.1267 10.8068 12.4951 10.7921 12.8629 10.7805C13.4603 10.7619 14.0581 10.7478 14.6555 10.7405C15.6268 10.7283 16.5984 10.7142 17.5696 10.7177C18.2847 10.7203 18.9993 10.7456 19.714 10.7712C19.8745 10.777 19.9764 10.7321 20.0744 10.6007C21.0755 9.25804 22.1694 7.99587 23.388 6.84558C23.7721 6.48299 24.1757 6.14092 24.58 5.80077C24.6992 5.70042 24.7488 5.60456 24.7293 5.44747C24.6136 4.52609 24.5098 3.6031 24.3958 2.6814C24.3401 2.23128 24.267 1.78309 24.2097 1.33298C24.1334 0.734754 24.5656 0.147106 25.1579 0.0400283C25.2729 0.0191897 25.3911 0.00893071 25.508 0.00893071C27.2324 0.00700715 28.9568 0.00668656 30.6815 0.00828953C31.3482 0.00893071 31.8431 0.384666 31.9543 0.97616C31.9767 1.09574 31.9751 1.22077 31.9754 1.34324C31.9767 3.04238 31.9546 4.74185 31.9857 6.44035C32.0001 7.22869 31.3796 7.87276 30.4752 7.73074C29.264 7.54063 28.0432 7.41014 26.8269 7.25305C26.6875 7.2351 26.5735 7.26556 26.4572 7.35564C25.1396 8.37289 23.987 9.55812 22.9379 10.844C22.4049 11.4974 21.91 12.1819 21.3945 12.8496C21.3016 12.9699 21.2648 13.0952 21.2673 13.2485C21.2917 14.6905 21.3135 16.1325 21.3279 17.5746C21.3324 18.0231 21.317 18.4719 21.3016 18.9201C21.2962 19.0829 21.3381 19.2147 21.4339 19.349C22.5189 20.8703 23.7064 22.3036 25.0653 23.5889C25.4529 23.9553 25.8658 24.2951 26.2752 24.6372C26.3406 24.6917 26.4521 24.7241 26.5376 24.7161C27.1799 24.6545 27.8219 24.5878 28.4622 24.5083C29.198 24.4173 29.9313 24.3057 30.6668 24.2137C31.3354 24.1304 31.969 24.6722 31.9719 25.3461C31.9802 27.1786 31.9786 29.0114 31.9728 30.8439C31.9712 31.4046 31.5727 31.8605 31.0185 31.9727C30.9929 31.9778 30.9682 31.9894 30.9433 31.998C29.075 31.9984 27.2062 31.9984 25.3376 31.9984Z" fill="white"/>
<path d="M12.7482 31.9998C12.1937 31.851 11.8522 31.5054 11.7648 30.9287C11.6933 30.4593 11.6187 29.9903 11.5582 29.5197C11.4396 28.5992 11.333 27.6772 11.2157 26.7565C11.1638 26.3493 11.1968 25.9675 11.4816 25.6431C11.7452 25.3427 12.0749 25.2151 12.4753 25.2208C13.7823 25.2404 15.0893 25.2603 16.3963 25.2564C17.4576 25.2532 18.5189 25.2135 19.5801 25.1939C20.2682 25.1811 20.7824 25.6283 20.84 26.3144C20.8599 26.55 20.8183 26.7933 20.7862 27.0306C20.612 28.3203 20.4297 29.6088 20.2551 30.8985C20.1757 31.4855 19.8383 31.8366 19.2835 31.9998C17.1049 31.9998 14.9265 31.9998 12.7482 31.9998Z" fill="white"/>
<path d="M0 12.8599C0.121409 12.4293 0.354618 12.0821 0.799572 11.9542C1.12568 11.8606 1.46716 11.8144 1.80448 11.7686C2.92952 11.6153 4.05616 11.473 5.18184 11.3233C5.5403 11.2755 5.88499 11.2871 6.19476 11.5038C6.55995 11.759 6.7355 12.1119 6.73133 12.555C6.7198 13.7886 6.69481 15.022 6.69866 16.2556C6.70186 17.3286 6.73646 18.4017 6.75824 19.4747C6.77266 20.1813 6.31072 20.7144 5.61142 20.7673C5.40704 20.7827 5.1969 20.7449 4.99124 20.7167C3.67656 20.5342 2.36156 20.3525 1.04816 20.1604C0.530165 20.0848 0.190283 19.7821 0.0304324 19.281C0.0224239 19.256 0.0102509 19.232 0 19.2076C0 17.0917 0 14.9758 0 12.8599Z" fill="white"/>
<path d="M0 0.964688C0.0765616 0.806956 0.133262 0.635119 0.233849 0.494699C0.470581 0.165449 0.809503 0.00515289 1.21217 0.00419111C2.98462 0.000343989 4.75707 -0.00318254 6.52952 0.00483229C7.32268 0.00835882 7.82754 0.680963 7.71702 1.49078C7.51104 3.00302 7.3246 4.51782 7.14906 6.03391C7.06577 6.75428 6.66983 7.1733 5.94714 7.25986C4.42231 7.44291 2.89845 7.63335 1.3749 7.82442C0.780351 7.89912 0.242178 7.56891 0.0480512 6.99889C0.0326748 6.95369 0.0160171 6.90849 0 6.8636C0 4.89741 0 2.93089 0 0.964688Z" fill="white"/>
<path d="M0 25.2011C0.134223 24.7176 0.414522 24.357 0.920661 24.2602C1.16893 24.2127 1.43929 24.2505 1.69557 24.282C2.73251 24.4092 3.76785 24.5522 4.80448 24.6827C5.2222 24.7353 5.64249 24.7689 6.06086 24.8154C6.65445 24.8811 7.08563 25.3287 7.15386 25.9157C7.33678 27.4895 7.52514 29.0626 7.71895 30.6352C7.79358 31.2414 7.41238 31.8207 6.81847 31.9701C6.78771 31.9778 6.7576 31.9881 6.72717 31.9974C4.81569 31.9974 2.90453 31.9974 0.993058 31.9974C0.888306 31.9614 0.77939 31.9345 0.679444 31.8887C0.311372 31.7194 0.110838 31.4126 0 31.0359C0 29.0909 0 27.1461 0 25.2011Z" fill="white"/>
<path d="M0 31.0379C0.110925 31.4146 0.311617 31.7214 0.679978 31.891C0.780003 31.9372 0.889005 31.9641 0.993839 31.9997C0.662666 31.9997 0.331173 31.9997 0 31.9997C0 31.6791 0 31.3585 0 31.0379Z" fill="white"/>
<path d="M16.2163 6.74323C15.1063 6.76503 13.9964 6.78747 12.8864 6.80831C12.6525 6.8128 12.4136 6.84133 12.1855 6.8051C11.5502 6.70475 11.1014 6.1434 11.1831 5.50862C11.376 4.00568 11.588 2.50466 11.8139 1.00621C11.9052 0.40029 12.3927 0.00596024 13.0062 0.00435727C14.9814 -0.000772219 16.9566 -0.00077222 18.9319 0.00467786C19.5671 0.00660142 20.0563 0.430105 20.1463 1.06392C20.3471 2.47998 20.5403 3.897 20.7226 5.31563C20.8151 6.03472 20.4628 6.58389 19.8314 6.74611C19.7196 6.77497 19.5991 6.77977 19.4828 6.78009C18.394 6.78266 17.3052 6.7817 16.216 6.7817C16.2163 6.76887 16.2163 6.75605 16.2163 6.74323Z" fill="white"/>
<path d="M31.9984 15.9901C31.9984 16.9304 31.9988 17.8704 31.9984 18.8107C31.9981 19.6032 31.5938 20.0652 30.8058 20.1716C29.5536 20.3406 28.3014 20.5095 27.0485 20.6749C26.8531 20.7006 26.6555 20.7201 26.4588 20.7211C25.7944 20.724 25.2655 20.1992 25.2677 19.5336C25.27 18.8552 25.2959 18.1772 25.2946 17.4988C25.2921 16.3505 25.2806 15.2021 25.2639 14.0537C25.2565 13.536 25.2213 13.0185 25.2107 12.5011C25.1937 11.6781 25.837 11.12 26.6529 11.229C27.6991 11.3688 28.7473 11.4957 29.7938 11.6355C30.2058 11.6906 30.6174 11.7551 31.0259 11.8333C31.6249 11.9477 31.9955 12.4427 31.9981 13.1221C32.0013 14.0778 31.9984 15.0338 31.9984 15.9901Z" fill="white"/>
</svg>
