<svg width="1170" height="377" viewBox="0 0 1170 377" fill="none" xmlns="http://www.w3.org/2000/svg">
<path opacity="0.8" fill-rule="evenodd" clip-rule="evenodd" d="M0 232.979L43 293.5C91.75 254.67 153.5 300.5 251 300.5C348.5 300.5 385 230.606 482.5 300.5C580 370.394 805.5 310.639 903 326.171C1000.5 341.703 1072.5 357.235 1121.25 341.703L1170 326.171V0H1121.25C1072.5 0 975 0 877.5 0C780 0 682.5 0 585 0C487.5 0 390 0 292.5 0C195 0 97.5 0 48.75 0H0V232.979Z" fill="#7652DC"/>
<path opacity="0.8" fill-rule="evenodd" clip-rule="evenodd" d="M0 333.026L48.75 340.955C97.5 348.884 195 364.743 292.5 333.026C390 301.309 487.5 301.429 585 293.5C682.5 285.571 780 269.592 877.5 245.805C975 222.017 1072.5 111.009 1121.25 55.5043L1170 0H1121.25C1072.5 0 975 0 877.5 0C780 0 682.5 0 585 0C487.5 0 390 0 292.5 0C195 0 97.5 0 48.75 0H0V333.026Z" fill="#AD97EA"/>
<path opacity="0.8" fill-rule="evenodd" clip-rule="evenodd" d="M0 213.251L65.325 231.022C129.675 248.792 260.325 284.334 390 248.792C519.675 213.251 650.325 183.271 780 165.5C909.675 147.729 998.65 162.958 1063 198.5L1170 248.792V0H1104.68C1040.33 0 909.675 0 780 0C650.325 0 519.675 0 390 0C260.325 0 129.675 0 65.325 0H0V213.251Z" fill="#9175E3"/>
</svg>
