<?xml version="1.0" encoding="UTF-8"?>
<svg xmlns="http://www.w3.org/2000/svg" xmlns:xlink="http://www.w3.org/1999/xlink" width="1650px" height="532px" viewBox="0 0 1651 532" version="1.1">
<defs>
<filter id="alpha" filterUnits="objectBoundingBox" x="0%" y="0%" width="100%" height="100%">
  <feColorMatrix type="matrix" in="SourceGraphic" values="0 0 0 0 1 0 0 0 0 1 0 0 0 0 1 0 0 0 1 0"/>
</filter>
<mask id="mask0">
  <g filter="url(#alpha)">
<rect x="0" y="0" width="1651" height="532" style="fill:rgb(0%,0%,0%);fill-opacity:0.8;stroke:none;"/>
  </g>
</mask>
<clipPath id="clip1">
  <rect x="0" y="0" width="1651" height="532"/>
</clipPath>
<g id="surface5" clip-path="url(#clip1)">
<path style=" stroke:none;fill-rule:evenodd;fill:rgb(46.27451%,32.156863%,86.27451%);fill-opacity:1;" d="M 0 328.765625 L 60.679688 414.167969 C 129.46875 359.375 216.605469 424.046875 354.1875 424.046875 C 491.773438 424.046875 543.277344 325.417969 680.859375 424.046875 C 818.445312 522.679688 1136.648438 438.355469 1274.234375 460.273438 C 1411.816406 482.191406 1513.417969 504.109375 1582.207031 482.191406 L 1651 460.273438 L 1651 0 L 1582.207031 0 C 1513.417969 0 1375.832031 0 1238.25 0 C 1100.667969 0 963.082031 0 825.5 0 C 687.917969 0 550.332031 0 412.75 0 C 275.167969 0 137.582031 0 68.792969 0 L 0 0 Z M 0 328.765625 "/>
</g>
<mask id="mask1">
  <g filter="url(#alpha)">
<rect x="0" y="0" width="1651" height="532" style="fill:rgb(0%,0%,0%);fill-opacity:0.8;stroke:none;"/>
  </g>
</mask>
<clipPath id="clip2">
  <rect x="0" y="0" width="1651" height="532"/>
</clipPath>
<g id="surface8" clip-path="url(#clip2)">
<path style=" stroke:none;fill-rule:evenodd;fill:rgb(67.843137%,59.215686%,91.764706%);fill-opacity:1;" d="M 0 469.945312 L 68.792969 481.136719 C 137.582031 492.324219 275.167969 514.703125 412.75 469.945312 C 550.332031 425.1875 687.917969 425.359375 825.5 414.167969 C 963.082031 402.980469 1100.667969 380.433594 1238.25 346.867188 C 1375.832031 313.296875 1513.417969 156.648438 1582.207031 78.324219 L 1651 0 L 1582.207031 0 C 1513.417969 0 1375.832031 0 1238.25 0 C 1100.667969 0 963.082031 0 825.5 0 C 687.917969 0 550.332031 0 412.75 0 C 275.167969 0 137.582031 0 68.792969 0 L 0 0 Z M 0 469.945312 "/>
</g>
<mask id="mask2">
  <g filter="url(#alpha)">
<rect x="0" y="0" width="1651" height="532" style="fill:rgb(0%,0%,0%);fill-opacity:0.8;stroke:none;"/>
  </g>
</mask>
<clipPath id="clip3">
  <rect x="0" y="0" width="1651" height="532"/>
</clipPath>
<g id="surface11" clip-path="url(#clip3)">
<path style=" stroke:none;fill-rule:evenodd;fill:rgb(56.862745%,45.882353%,89.019608%);fill-opacity:1;" d="M 0 300.925781 L 92.179688 326.003906 C 182.984375 351.082031 367.347656 401.234375 550.332031 351.082031 C 733.320312 300.925781 917.679688 258.621094 1100.667969 233.542969 C 1283.652344 208.464844 1409.207031 229.957031 1500.011719 280.113281 L 1651 351.082031 L 1651 0 L 1558.828125 0 C 1468.019531 0 1283.652344 0 1100.667969 0 C 917.679688 0 733.320312 0 550.332031 0 C 367.347656 0 182.984375 0 92.179688 0 L 0 0 Z M 0 300.925781 "/>
</g>
</defs>
<g id="surface1">
<use xlink:href="#surface5" mask="url(#mask0)"/>
<use xlink:href="#surface8" mask="url(#mask1)"/>
<use xlink:href="#surface11" mask="url(#mask2)"/>
</g>
</svg>
