<?xml version="1.0" encoding="UTF-8"?>
<svg xmlns="http://www.w3.org/2000/svg" xmlns:xlink="http://www.w3.org/1999/xlink" width="1920px" height="619px" viewBox="0 0 1921 619" version="1.1">
<defs>
<filter id="alpha" filterUnits="objectBoundingBox" x="0%" y="0%" width="100%" height="100%">
  <feColorMatrix type="matrix" in="SourceGraphic" values="0 0 0 0 1 0 0 0 0 1 0 0 0 0 1 0 0 0 1 0"/>
</filter>
<mask id="mask0">
  <g filter="url(#alpha)">
<rect x="0" y="0" width="1921" height="619" style="fill:rgb(0%,0%,0%);fill-opacity:0.8;stroke:none;"/>
  </g>
</mask>
<clipPath id="clip1">
  <rect x="0" y="0" width="1921" height="619"/>
</clipPath>
<g id="surface5" clip-path="url(#clip1)">
<path style=" stroke:none;fill-rule:evenodd;fill:rgb(46.27451%,32.156863%,86.27451%);fill-opacity:1;" d="M 0 382.53125 L 70.601562 481.902344 C 150.640625 418.144531 252.027344 493.394531 412.113281 493.394531 C 572.195312 493.394531 632.125 378.632812 792.207031 493.394531 C 952.289062 608.152344 1322.535156 510.042969 1482.617188 535.542969 C 1642.703125 561.046875 1760.917969 586.546875 1840.957031 561.046875 L 1921 535.542969 L 1921 0 L 1840.957031 0 C 1760.917969 0 1600.832031 0 1440.75 0 C 1280.667969 0 1120.582031 0 960.5 0 C 800.417969 0 640.332031 0 480.25 0 C 320.167969 0 160.082031 0 80.042969 0 L 0 0 Z M 0 382.53125 "/>
</g>
<mask id="mask1">
  <g filter="url(#alpha)">
<rect x="0" y="0" width="1921" height="619" style="fill:rgb(0%,0%,0%);fill-opacity:0.8;stroke:none;"/>
  </g>
</mask>
<clipPath id="clip2">
  <rect x="0" y="0" width="1921" height="619"/>
</clipPath>
<g id="surface8" clip-path="url(#clip2)">
<path style=" stroke:none;fill-rule:evenodd;fill:rgb(67.843137%,59.215686%,91.764706%);fill-opacity:1;" d="M 0 546.796875 L 80.042969 559.816406 C 160.082031 572.835938 320.167969 598.875 480.25 546.796875 C 640.332031 494.722656 800.417969 494.917969 960.5 481.902344 C 1120.582031 468.882812 1280.667969 442.644531 1440.75 403.589844 C 1600.832031 364.53125 1760.917969 182.265625 1840.957031 91.132812 L 1921 0 L 1840.957031 0 C 1760.917969 0 1600.832031 0 1440.75 0 C 1280.667969 0 1120.582031 0 960.5 0 C 800.417969 0 640.332031 0 480.25 0 C 320.167969 0 160.082031 0 80.042969 0 L 0 0 Z M 0 546.796875 "/>
</g>
<mask id="mask2">
  <g filter="url(#alpha)">
<rect x="0" y="0" width="1921" height="619" style="fill:rgb(0%,0%,0%);fill-opacity:0.8;stroke:none;"/>
  </g>
</mask>
<clipPath id="clip3">
  <rect x="0" y="0" width="1921" height="619"/>
</clipPath>
<g id="surface11" clip-path="url(#clip3)">
<path style=" stroke:none;fill-rule:evenodd;fill:rgb(56.862745%,45.882353%,89.019608%);fill-opacity:1;" d="M 0 350.140625 L 107.253906 379.316406 C 212.910156 408.492188 427.421875 466.851562 640.332031 408.492188 C 853.246094 350.140625 1067.753906 300.914062 1280.667969 271.734375 C 1493.578125 242.558594 1639.664062 267.5625 1745.320312 325.917969 L 1921 408.492188 L 1921 0 L 1813.753906 0 C 1708.097656 0 1493.578125 0 1280.667969 0 C 1067.753906 0 853.246094 0 640.332031 0 C 427.421875 0 212.910156 0 107.253906 0 L 0 0 Z M 0 350.140625 "/>
</g>
</defs>
<g id="surface1">
<use xlink:href="#surface5" mask="url(#mask0)"/>
<use xlink:href="#surface8" mask="url(#mask1)"/>
<use xlink:href="#surface11" mask="url(#mask2)"/>
</g>
</svg>
