<?xml version="1.0" encoding="UTF-8"?>
<svg xmlns="http://www.w3.org/2000/svg" xmlns:xlink="http://www.w3.org/1999/xlink" width="1650px" height="532px"
  viewBox="0 0 1651 532" version="1.1">
  <defs>
    <filter id="alpha" filterUnits="objectBoundingBox" x="0%" y="0%" width="100%" height="100%">
      <feColorMatrix type="matrix" in="SourceGraphic" values="0 0 0 0 1 0 0 0 0 1 0 0 0 0 1 0 0 0 1 0" />
    </filter>
    <mask id="mask0">
      <g filter="url(#alpha)">
        <rect x="0" y="0" width="1651" height="532" style="fill:rgb(0%,0%,0%);fill-opacity:0.101961;stroke:none;" />
      </g>
    </mask>
    <clipPath id="clip1">
      <rect x="0" y="0" width="1651" height="532" />
    </clipPath>
    <g id="surface5" clip-path="url(#clip1)">
      <path style=" stroke:none;fill-rule:evenodd;fill:rgb(56.862745%,45.882353%,89.019608%);fill-opacity:1;"
        d="M 1651 231.074219 L 1558.828125 205.996094 C 1468.019531 180.917969 1283.652344 130.765625 1100.667969 180.917969 C 917.679688 231.074219 733.320312 273.378906 550.332031 298.457031 C 367.347656 323.535156 241.792969 302.042969 150.988281 251.886719 L 0 180.917969 L 0 532 L 92.179688 532 C 182.984375 532 367.347656 532 550.332031 532 C 733.320312 532 917.679688 532 1100.667969 532 C 1283.652344 532 1468.007812 532 1558.8125 532 L 1651 532 Z M 1651 231.074219 " />
    </g>
  </defs>
  <g id="surface1">
    <use xlink:href="#surface5" mask="url(#mask0)" />
  </g>
</svg>