<svg width="25" height="24" viewBox="0 0 25 24" fill="none" xmlns="http://www.w3.org/2000/svg">
<path d="M21.5 21H5.1C4.53995 21 4.25992 21 4.04601 20.891C3.85785 20.7951 3.70487 20.6422 3.60899 20.454C3.5 20.2401 3.5 19.9601 3.5 19.4V3M21.5 7L16.0657 12.4343C15.8677 12.6323 15.7687 12.7313 15.6545 12.7684C15.5541 12.8011 15.4459 12.8011 15.3455 12.7684C15.2313 12.7313 15.1323 12.6323 14.9343 12.4343L13.0657 10.5657C12.8677 10.3677 12.7687 10.2687 12.6545 10.2316C12.5541 10.1989 12.4459 10.1989 12.3455 10.2316C12.2313 10.2687 12.1323 10.3677 11.9343 10.5657L7.5 15M21.5 7H17.5M21.5 7V11" stroke="#101828" stroke-width="2" stroke-linecap="round" stroke-linejoin="round"/>
</svg>
