<svg width="25" height="24" viewBox="0 0 25 24" fill="none" xmlns="http://www.w3.org/2000/svg">
<path d="M5.5 4.98963C5.5 4.01847 5.5 3.53289 5.70249 3.26522C5.87889 3.03203 6.14852 2.88773 6.4404 2.8703C6.77544 2.8503 7.17946 3.11965 7.98752 3.65835L18.5031 10.6687C19.1708 11.1139 19.5046 11.3364 19.6209 11.6169C19.7227 11.8622 19.7227 12.1378 19.6209 12.3831C19.5046 12.6636 19.1708 12.8862 18.5031 13.3313L7.98752 20.3417C7.17946 20.8804 6.77544 21.1497 6.4404 21.1297C6.14852 21.1123 5.87889 20.968 5.70249 20.7348C5.5 20.4671 5.5 19.9815 5.5 19.0104V4.98963Z" stroke="#101828" stroke-width="2" stroke-linecap="round" stroke-linejoin="round"/>
</svg>
