<svg width="32" height="32" viewBox="0 0 32 32" fill="none" xmlns="http://www.w3.org/2000/svg">
<rect width="32" height="32" rx="16" fill="#F6F2FF"/>
<path fill-rule="evenodd" clip-rule="evenodd" d="M21 17H23V11C22.9984 10.4701 22.7872 9.96227 22.4125 9.58753C22.0377 9.2128 21.5299 9.00158 21 9H11C10.4701 9.00158 9.96227 9.2128 9.58753 9.58753C9.2128 9.96227 9.00158 10.4701 9 11V17H11V11H21V17ZM10 22C9.47005 21.9984 8.96227 21.7872 8.58753 21.4125C8.2128 21.0377 8.00158 20.5299 8 20V19H14V20.5V22H10ZM19 15C19.2761 15 19.5 15.2239 19.5 15.5V21.2929L21.6464 19.1464C21.8417 18.9512 22.1583 18.9512 22.3536 19.1464C22.5488 19.3417 22.5488 19.6583 22.3536 19.8536L19.3536 22.8536C19.3056 22.9015 19.2504 22.9377 19.1914 22.9621C19.1333 22.9861 19.0697 22.9996 19.003 23C19.002 23 19.001 23 19 23C18.999 23 18.998 23 18.997 23C18.9303 22.9996 18.8667 22.9861 18.8086 22.9621C18.7496 22.9377 18.6944 22.9015 18.6464 22.8536L15.6464 19.8536C15.4512 19.6583 15.4512 19.3417 15.6464 19.1464C15.8417 18.9512 16.1583 18.9512 16.3536 19.1464L18.5 21.2929V15.5C18.5 15.2239 18.7239 15 19 15Z" fill="#8D67FB"/>
</svg>
