<svg width="32" height="32" viewBox="0 0 32 32" fill="none" xmlns="http://www.w3.org/2000/svg">
<rect width="32" height="32" rx="16" fill="#F6F2FF"/>
<path fill-rule="evenodd" clip-rule="evenodd" d="M16 9.33333C12.32 9.33333 9.33337 12.32 9.33337 16C9.33337 19.68 12.32 22.6667 16 22.6667C19.68 22.6667 22.6667 19.68 22.6667 16C22.6667 12.32 19.68 9.33333 16 9.33333ZM16 19.3333C15.6334 19.3333 15.3334 19.0333 15.3334 18.6667V16C15.3334 15.6333 15.6334 15.3333 16 15.3333C16.3667 15.3333 16.6667 15.6333 16.6667 16V18.6667C16.6667 19.0333 16.3667 19.3333 16 19.3333ZM15.3334 14H16.6667V12.6667H15.3334V14Z" fill="#8D67FB"/>
</svg>
