<svg width="32" height="32" viewBox="0 0 32 32" fill="none" xmlns="http://www.w3.org/2000/svg">
<rect width="32" height="32" rx="16" fill="#F6F2FF"/>
<g clip-path="url(#clip0_7869_175223)">
<path d="M16 23C19.866 23 23 19.866 23 16C23 12.134 19.866 9 16 9C12.134 9 9 12.134 9 16C9 19.866 12.134 23 16 23Z" stroke="#8D67FB" stroke-width="2" stroke-linecap="round" stroke-linejoin="round"/>
<path d="M16.0001 19.2677C17.8042 19.2677 19.2667 17.8052 19.2667 16.001C19.2667 14.1969 17.8042 12.7344 16.0001 12.7344C14.1959 12.7344 12.7334 14.1969 12.7334 16.001C12.7334 17.8052 14.1959 19.2677 16.0001 19.2677Z" stroke="#8D67FB" stroke-width="2" stroke-linecap="round" stroke-linejoin="round"/>
<path d="M18.3093 13.6912L20.9497 11.0508" stroke="#8D67FB" stroke-width="2" stroke-linecap="round" stroke-linejoin="round"/>
<path d="M18.3093 18.3086L20.9497 20.949" stroke="#8D67FB" stroke-width="2" stroke-linecap="round" stroke-linejoin="round"/>
<path d="M13.6909 18.3086L11.0505 20.949" stroke="#8D67FB" stroke-width="2" stroke-linecap="round" stroke-linejoin="round"/>
<path d="M13.6909 13.6912L11.0505 11.0508" stroke="#8D67FB" stroke-width="2" stroke-linecap="round" stroke-linejoin="round"/>
</g>
<defs>
<clipPath id="clip0_7869_175223">
<rect width="16" height="16" fill="white" transform="translate(8 8)"/>
</clipPath>
</defs>
</svg>
